<?xml version="1.0" encoding="UTF-8"?><svg id="Layer_1" xmlns="http://www.w3.org/2000/svg" width="201.53" height="332.12" viewBox="0 0 201.53 332.12"><path d="M112.51,332.12c-12.05,0-22.97-1.96-32.76-5.87-9.79-3.91-18.6-7.83-26.43-11.75-6.63-3.61-12.13-6.33-16.49-8.13-4.37-1.81-8.21-2.71-11.52-2.71-4.22,0-7.16,1.74-8.81,5.2-1.66,3.47-2.94,7.31-3.84,11.52l-1.36,6.78H0l2.26-53.32-1.36-58.29h11.3l4.97,21.24c3.31,13.26,9.26,26.21,17.85,38.86,8.59,12.65,19.43,23.04,32.53,31.18,13.1,8.13,28.09,12.2,44.96,12.2,9.33,0,18.3-2.03,26.89-6.1s15.66-10.32,21.24-18.75c5.57-8.43,8.36-19.43,8.36-32.99,0-20.18-6.55-36.45-19.66-48.8-13.1-12.35-31.26-24.1-54.45-35.25l-18.98-9.04c-22.59-10.84-39.39-22.82-50.38-35.92-11-13.1-16.49-29.89-16.49-50.38,0-15.96,3.91-30.12,11.75-42.47,7.83-12.35,18.6-21.99,32.31-28.92C66.8,3.47,82.54,0,100.31,0c12.35,0,22.74,1.66,31.18,4.97,8.43,3.32,15.06,6.18,19.88,8.59,7.83,3.92,14.01,5.87,18.53,5.87,4.82,0,7.68-4.67,8.59-14.01h11.3l-1.36,43.38.9,43.83h-11.3c-1.81-16.87-6.48-31.25-14.01-43.15-7.53-11.9-16.65-21.01-27.34-27.34-10.7-6.33-22.07-9.49-34.12-9.49-17.78,0-32.16,5.13-43.15,15.36-11,10.24-16.49,23.35-16.49,39.31,0,17.17,5.57,30.66,16.72,40.44,11.14,9.79,25.6,19.06,43.38,27.79l18.53,9.04c16.56,8.13,30.8,16.49,42.7,25.08,11.9,8.59,21.08,18.6,27.56,30.05,6.47,11.45,9.72,25.76,9.72,42.93s-4,33.44-11.97,46.99c-7.99,13.56-18.68,24.03-32.08,31.4-13.41,7.38-28.4,11.07-44.96,11.07Z"/></svg>